<svg id="Capa_1" enable-background="new 0 0 512 512" height="512" viewBox="0 0 512 512" width="512" xmlns="http://www.w3.org/2000/svg" xmlns:xlink="http://www.w3.org/1999/xlink"><linearGradient id="SVGID_1_" gradientUnits="userSpaceOnUse" x1="256" x2="256" y1="512" y2="0"><stop offset="0" stop-color="#ffc8d1"/><stop offset="1" stop-color="#fff6f7"/></linearGradient><linearGradient id="SVGID_2_" gradientUnits="userSpaceOnUse" x1="256" x2="256" y1="389.5" y2="122.5"><stop offset="0" stop-color="#ffde00"/><stop offset="1" stop-color="#fd5900"/></linearGradient><g><circle cx="256" cy="256" fill="url(#SVGID_1_)" r="256"/><g><g><path d="m171.149 159.039 4.91 2.46v-38.999h-17.765v38.998l4.91-2.46c2.498-1.251 5.447-1.251 7.945.001zm58.204 79.161v-106.8c0-4.919-3.973-8.9-8.882-8.9h-26.647v53.4c0 3.085-1.596 5.945-4.216 7.57-2.564 1.598-5.829 1.79-8.64.391l-13.792-6.91-13.792 6.91c-2.758 1.365-6.02 1.234-8.639-.391-2.62-1.625-4.216-4.485-4.216-7.57v-53.4h-26.647c-4.91 0-8.882 3.981-8.882 8.9v106.8c0 4.919 3.973 8.9 8.882 8.9h106.588c4.91 0 8.883-3.981 8.883-8.9zm30.62 63.239 4.91 2.46v-38.999h-17.765v38.998l4.91-2.46c2.497-1.251 5.447-1.251 7.945.001zm88.823-142.4 4.91 2.46v-38.999h-17.765v38.998l4.91-2.46c2.498-1.251 5.447-1.251 7.945.001zm49.322-36.539h-26.647v53.4c0 3.085-1.596 5.945-4.216 7.57-2.564 1.598-5.829 1.79-8.639.391l-13.792-6.91-13.792 6.91c-2.758 1.365-6.037 1.234-8.64-.391-2.62-1.625-4.216-4.485-4.216-7.57v-53.4h-26.647c-4.91 0-8.882 3.981-8.882 8.9v106.8c0 4.919 3.973 8.9 8.882 8.9h106.588c4.91 0 8.882-3.981 8.882-8.9v-106.8c.001-4.919-3.972-8.9-8.881-8.9zm-62.177 195.8h-17.765v-44.5c0-4.919-3.973-8.9-8.882-8.9h-26.647v53.4c0 3.085-1.596 5.945-4.216 7.57-2.564 1.598-5.829 1.79-8.639.391l-13.792-6.909-13.792 6.91c-2.767 1.373-6.029 1.226-8.639-.391-2.62-1.625-4.216-4.485-4.216-7.57v-53.4h-26.647c-4.91 0-8.882 3.981-8.882 8.9v44.5h-17.765v-53.4h-17.765v62.3c0 4.919 3.973 8.9 8.882 8.9h26.647v44.5c0 4.919 3.973 8.9 8.882 8.9h106.588c4.91 0 8.882-3.981 8.882-8.9v-44.5h26.647c4.91 0 8.882-3.981 8.882-8.9v-62.3h-17.765v53.399z" fill="url(#SVGID_2_)"/></g></g></g></svg>