<svg id="Capa_1" enable-background="new 0 0 512 512" height="512" viewBox="0 0 512 512" width="512" xmlns="http://www.w3.org/2000/svg" xmlns:xlink="http://www.w3.org/1999/xlink"><linearGradient id="SVGID_1_" gradientUnits="userSpaceOnUse" x1="256" x2="256" y1="512" y2="0"><stop offset="0" stop-color="#c3ffe8"/><stop offset=".9973" stop-color="#f0fff4"/></linearGradient><linearGradient id="SVGID_2_" gradientUnits="userSpaceOnUse" x1="256" x2="256" y1="113.387" y2="413.637"><stop offset="0" stop-color="#00b59c"/><stop offset="1" stop-color="#83f3a9"/></linearGradient><g><circle cx="256" cy="256" fill="url(#SVGID_1_)" r="256"/><g><path d="m400.506 318.959h-27.582v-44.971c0-4.971-4.023-8.994-8.994-8.994h-98.936v-35.977h44.971c4.971 0 8.994-4.023 8.994-8.994v-108.529c0-4.971-4.023-8.994-8.994-8.994h-107.93c-4.971 0-8.994 4.023-8.994 8.994v108.529c0 4.971 4.023 8.994 8.994 8.994h44.971v35.977h-98.936c-4.971 0-8.994 4.023-8.994 8.994v44.971h-27.582c-4.971 0-8.994 4.023-8.994 8.994v72.553c0 4.971 4.023 8.994 8.994 8.994h72.553c4.971 0 8.994-4.023 8.994-8.994v-72.553c0-4.971-4.023-8.994-8.994-8.994h-26.982v-35.977h89.941v35.977h-26.982c-4.971 0-8.994 4.023-8.994 8.994v72.553c0 4.971 4.023 8.994 8.994 8.994h71.953c4.971 0 8.994-4.023 8.994-8.994v-72.553c0-4.971-4.023-8.994-8.994-8.994h-26.982v-35.977h89.941v35.977h-26.982c-4.971 0-8.994 4.023-8.994 8.994v72.553c0 4.971 4.023 8.994 8.994 8.994h72.553c4.971 0 8.994-4.023 8.994-8.994v-72.553c-.001-4.971-4.024-8.994-8.995-8.994z" fill="url(#SVGID_2_)"/></g></g></svg>