<svg id="Capa_1" enable-background="new 0 0 512 512" height="512" viewBox="0 0 512 512" width="512" xmlns="http://www.w3.org/2000/svg" xmlns:xlink="http://www.w3.org/1999/xlink"><linearGradient id="SVGID_1_" gradientUnits="userSpaceOnUse" x1="256" x2="256" y1="512" y2="0"><stop offset="0" stop-color="#ffc8d1"/><stop offset="1" stop-color="#fff6f7"/></linearGradient><linearGradient id="SVGID_2_" gradientUnits="userSpaceOnUse" x1="256" x2="256" y1="407" y2="105"><stop offset="0" stop-color="#ffa68d"/><stop offset="1" stop-color="#fd3a84"/></linearGradient><g><g><circle cx="256" cy="256" fill="url(#SVGID_1_)" r="256"/></g><g><g><g><path d="m243.107 152.806c-6.32 6.32-12.511 13.286-18.187 20.509-17.413 21.798-34.569 49.272-50.949 81.905-10.448 20.767-16.381 35.472-16.769 36.117-1.29 3.354-.516 7.223 2.064 9.803l51.594 51.595c2.58 2.58 6.449 3.354 9.932 1.935.645-.13 14.962-6.191 35.729-16.381 33.407-16.897 61.268-34.439 82.808-51.852 7.095-5.547 13.802-11.48 19.864-17.542 18.188-18.188 31.344-44.5 39.341-78.294l-77.133-77.133c-33.793 7.994-60.106 21.15-78.294 39.338zm83.841 96.739c-17.78 17.779-46.713 17.779-64.493 0-17.78-17.78-17.78-46.713 0-64.493 17.78-17.779 46.713-17.779 64.493 0 17.78 17.78 17.78 46.713 0 64.493zm-206.358-12.918c1.587 1.587 3.747 2.576 6.071 2.683.722.028 13.461.54 29.6 10.588.493-.994.897-1.856 1.412-2.879 14.816-29.5 30.433-54.959 46.465-76.353-19.542 4.488-48.129 17.643-83.567 53.082-2.551 2.551-3.325 6.374-2.022 9.743.467 1.197 1.166 2.261 2.041 3.136zm141.802 119.087c11.036 16.901 11.936 30.556 11.973 31.325.101 2.33 1.077 4.478 2.664 6.065.869.869 1.921 1.568 3.111 2.041 3.376 1.323 7.218.529 9.787-2.041 37.667-37.667 50.227-67.662 53.883-87.201-21.595 16.565-48.018 32.963-79.056 48.663-.078.038-1.054.514-2.362 1.148zm-128.922-41.676c-15.474 15.474-26.307 71.188-28.323 82.197-.535 2.954.409 5.977 2.526 8.093 2.116 2.116 5.139 3.061 8.093 2.526 11.009-2.016 66.722-12.848 82.197-28.323 2.208-2.208 4.137-4.592 5.797-7.102l-63.188-63.188c-2.51 1.659-4.894 3.588-7.102 5.797zm273.449-200.185c-.128-4.773-3.999-8.644-8.772-8.772-1.197-.109-25.081-.704-55.198 4.134l59.835 59.835c4.839-30.117 4.245-54 4.135-55.197z" fill="url(#SVGID_2_)"/></g></g></g></g></svg>