<svg id="Capa_1" enable-background="new 0 0 512 512" height="512" viewBox="0 0 512 512" width="512" xmlns="http://www.w3.org/2000/svg" xmlns:xlink="http://www.w3.org/1999/xlink"><linearGradient id="SVGID_1_" gradientUnits="userSpaceOnUse" x1="256" x2="256" y1="512" y2="0"><stop offset="0" stop-color="#00000008"/><stop offset="1" stop-color="#00000008"/></linearGradient><linearGradient id="SVGID_2_" gradientUnits="userSpaceOnUse" x1="256" x2="256" y1="326.587" y2="113.5"><stop offset="0" stop-color="#ffde00"/><stop offset="1" stop-color="#fd5900"/></linearGradient><g><circle cx="256" cy="256" fill="url(#SVGID_1_)" r="256"/><g><g><path d="m256 256.442c-34.619 0-64.744 25.751-69.957 59.332-.98 4.37-1.102 8.541-1.102 11.697 0 39.165 31.878 71.029 71.059 71.029s71.059-31.864 71.059-71.029c0-3.156-.121-7.327-.989-11.133-5.326-34.145-35.451-59.896-70.07-59.896zm32.927 68.428-35.53 35.514c-1.735 1.734-4.007 2.601-6.28 2.601s-4.545-.867-6.28-2.601l-17.765-17.757c-3.47-3.468-3.47-9.086 0-12.555 3.47-3.468 9.091-3.468 12.56 0l11.485 11.479 29.249-29.237c3.47-3.468 9.091-3.468 12.56 0 3.471 3.469 3.471 9.088.001 12.556zm-183.927-197.17v190.008c0 4.908 3.973 8.879 8.882 8.879h53.327c.024-3.979.227-9.024 1.503-14.697 6.358-41.237 43.978-73.205 87.288-73.205-1.874 0-3.747-.59-5.326-1.778zm291.344-14.2h-280.688l140.344 105.208zm-135.018 123.407c-1.579 1.188-3.452 1.778-5.326 1.778 43.293 0 80.965 32.211 87.626 74.913.98 4.138 1.148 9.245 1.17 12.989h53.321c4.91 0 8.882-3.971 8.882-8.879v-190.008z" fill="url(#SVGID_2_)"/></g></g></g></svg>