<svg id="Capa_1" enable-background="new 0 0 512 512" height="512" viewBox="0 0 512 512" width="512" xmlns="http://www.w3.org/2000/svg" xmlns:xlink="http://www.w3.org/1999/xlink"><linearGradient id="SVGID_1_" gradientUnits="userSpaceOnUse" x1="256" x2="256" y1="512" y2="0"><stop offset="0" stop-color="#c3ffe8"/><stop offset=".9973" stop-color="#f0fff4"/></linearGradient><linearGradient id="SVGID_2_" gradientUnits="userSpaceOnUse" x1="256" x2="256" y1="398" y2="114"><stop offset="0" stop-color="#9cffac"/><stop offset="1" stop-color="#00b59c"/></linearGradient><g><circle cx="256" cy="256" fill="url(#SVGID_1_)" r="256"/></g><g><g><path d="m398.118 114h-284.236c-4.91 0-8.882 3.969-8.882 8.875v195.25c0 4.906 3.973 8.875 8.882 8.875h284.235c4.91 0 8.882-3.969 8.882-8.875v-195.25c.001-4.906-3.972-8.875-8.881-8.875zm-106.589 133.125c-6.848 0-13.039-2.667-17.765-6.925-4.725 4.258-10.917 6.925-17.765 6.925-14.694 0-26.647-11.943-26.647-26.625s11.953-26.625 26.647-26.625 26.647 11.943 26.647 26.625c0 4.897 3.99 8.875 8.882 8.875s8.882-3.978 8.882-8.875c0-24.467-19.916-44.375-44.412-44.375s-44.412 19.908-44.412 44.375 19.916 44.375 44.412 44.375c5.083 0 10.079-.849 14.815-2.522 4.649-1.664 9.698.763 11.346 5.408 1.631 4.619-.798 9.689-5.413 11.319-6.662 2.357-13.636 3.545-20.749 3.545-34.28 0-62.177-27.873-62.177-62.125s27.9-62.125 62.18-62.125 62.177 27.873 62.177 62.125c0 14.682-11.954 26.625-26.648 26.625zm-35.529-35.5c-4.892 0-8.882 3.978-8.882 8.875s3.99 8.875 8.882 8.875 8.882-3.978 8.882-8.875-3.99-8.875-8.882-8.875zm67.121 170.125-5.135-3.406c-14.503-9.542-17.574-11.874-17.574-20.991v-12.603h-88.823v12.602c0 9.178-4.493 12.55-17.47 20.974l-5.222 3.415c-3.261 2.167-4.701 6.214-3.574 9.958 1.128 3.744 4.58 6.301 8.501 6.301h124.353c3.903 0 7.356-2.557 8.501-6.292 1.127-3.736-.313-7.783-3.557-9.958z" fill="url(#SVGID_2_)"/></g></g></svg>