<?xml version="1.0" encoding="UTF-8" standalone="no"?>
<!-- Created with Inkscape (http://www.inkscape.org/) -->

<svg
   xmlns:dc="http://purl.org/dc/elements/1.1/"
   xmlns:cc="http://creativecommons.org/ns#"
   xmlns:rdf="http://www.w3.org/1999/02/22-rdf-syntax-ns#"
   xmlns:svg="http://www.w3.org/2000/svg"
   xmlns="http://www.w3.org/2000/svg"
   xmlns:sodipodi="http://sodipodi.sourceforge.net/DTD/sodipodi-0.dtd"
   xmlns:inkscape="http://www.inkscape.org/namespaces/inkscape"
   version="1.1"
   id="svg815"
   width="64"
   height="64"
   viewBox="0 0 64 64"
   sodipodi:docname="linked3.svg"
   inkscape:version="0.92.2 (5c3e80d, 2017-08-06)">
  <metadata
     id="metadata821">
    <rdf:RDF>
      <cc:Work
         rdf:about="">
        <dc:format>image/svg+xml</dc:format>
        <dc:type
           rdf:resource="http://purl.org/dc/dcmitype/StillImage" />
        <dc:title></dc:title>
        <dc:date>2018</dc:date>
        <dc:creator>
          <cc:Agent>
            <dc:title>Lazur URH</dc:title>
          </cc:Agent>
        </dc:creator>
      </cc:Work>
    </rdf:RDF>
  </metadata>
  <defs
     id="defs819" />
  <sodipodi:namedview
     pagecolor="#003af6"
     bordercolor="#ffffff"
     borderopacity="1"
     objecttolerance="10"
     gridtolerance="10"
     guidetolerance="10"
     inkscape:pageopacity="0.7450980392"
     inkscape:pageshadow="2"
     inkscape:window-width="1366"
     inkscape:window-height="705"
     id="namedview817"
     showgrid="true"
     inkscape:pagecheckerboard="true"
     borderlayer="true"
     inkscape:showpageshadow="false"
     showguides="true"
     guidecolor="#00ffe4"
     guideopacity="1"
     guidehicolor="#f000ff"
     guidehiopacity="1"
     inkscape:zoom="8.28125"
     inkscape:cx="32"
     inkscape:cy="32"
     inkscape:window-x="-8"
     inkscape:window-y="-8"
     inkscape:window-maximized="1"
     inkscape:current-layer="svg815"
     inkscape:guide-bbox="true"
     inkscape:snap-global="false">
    <inkscape:grid
       type="xygrid"
       id="grid827"
       color="#ffffff"
       opacity="0.1254901961"
       empcolor="#ffffff"
       empopacity="0.2509803922"
       empspacing="1"
       dotted="true"
       visible="false" />
  </sodipodi:namedview>
  <g
     id="g9633">
    <path
       inkscape:connector-curvature="0"
       id="rect825"
       d="m 0,0 h 64 v 64 h -64 z"
       style="color:#000000;clip-rule:nonzero;display:inline;overflow:visible;visibility:visible;opacity:1;isolation:auto;mix-blend-mode:normal;color-interpolation:sRGB;color-interpolation-filters:linearRGB;solid-color:#000000;solid-opacity:1;fill:#ff0000;fill-opacity:1;fill-rule:nonzero;stroke:none;stroke-width:1;stroke-linecap:round;stroke-linejoin:miter;stroke-miterlimit:4;stroke-dasharray:none;stroke-dashoffset:0;stroke-opacity:1;marker:none;paint-order:fill markers stroke;color-rendering:auto;image-rendering:auto;shape-rendering:auto;text-rendering:auto;enable-background:accumulate" />
    <path
       inkscape:connector-curvature="0"
       style="color:#000000;clip-rule:nonzero;display:inline;overflow:visible;visibility:visible;opacity:1;isolation:auto;mix-blend-mode:normal;color-interpolation:sRGB;color-interpolation-filters:linearRGB;solid-color:#000000;solid-opacity:1;fill:#ffffff;fill-opacity:1;fill-rule:nonzero;stroke:none;stroke-width:1;stroke-linecap:round;stroke-linejoin:miter;stroke-miterlimit:4;stroke-dasharray:none;stroke-dashoffset:0;stroke-opacity:1;marker:none;paint-order:fill markers stroke;color-rendering:auto;image-rendering:auto;shape-rendering:auto;text-rendering:auto;enable-background:accumulate"
       d="m 1,1 h 62 v 62 h -62 z"
       id="path828" />
    <g
       id="g9623">
      <rect
         style="color:#000000;clip-rule:nonzero;display:inline;overflow:visible;visibility:visible;opacity:1;isolation:auto;mix-blend-mode:normal;color-interpolation:sRGB;color-interpolation-filters:linearRGB;solid-color:#000000;solid-opacity:1;vector-effect:none;fill:#f00000;fill-opacity:1;fill-rule:nonzero;stroke:none;stroke-width:1;stroke-linecap:round;stroke-linejoin:miter;stroke-miterlimit:4;stroke-dasharray:none;stroke-dashoffset:0;stroke-opacity:1;marker:none;paint-order:markers stroke fill;color-rendering:auto;image-rendering:auto;shape-rendering:auto;text-rendering:auto;enable-background:accumulate"
         id="rect7316"
         width="19"
         height="19"
         x="23.20000076293945"
         y="6.800000190734863"
         ry="1.5"
         rx="1.5" />
      <g
         id="g9617">
        <rect
           transform="rotate(-45)"
           ry="0"
           rx="0"
           y="29.06426811218262"
           x="10.62283611297607"
           height="11.16792964935303"
           width="1.947432160377502"
           id="rect7319"
           style="color:#000000;clip-rule:nonzero;display:inline;overflow:visible;visibility:visible;opacity:1;isolation:auto;mix-blend-mode:normal;color-interpolation:sRGB;color-interpolation-filters:linearRGB;solid-color:#000000;solid-opacity:1;vector-effect:none;fill:#ffffff;fill-opacity:1;fill-rule:nonzero;stroke:none;stroke-width:1;stroke-linecap:round;stroke-linejoin:miter;stroke-miterlimit:4;stroke-dasharray:none;stroke-dashoffset:0;stroke-opacity:1;marker:none;paint-order:markers stroke fill;color-rendering:auto;image-rendering:auto;shape-rendering:auto;text-rendering:auto;enable-background:accumulate" />
        <rect
           style="color:#000000;clip-rule:nonzero;display:inline;overflow:visible;visibility:visible;opacity:1;isolation:auto;mix-blend-mode:normal;color-interpolation:sRGB;color-interpolation-filters:linearRGB;solid-color:#000000;solid-opacity:1;vector-effect:none;fill:#ffffff;fill-opacity:1;fill-rule:nonzero;stroke:none;stroke-width:1;stroke-linecap:round;stroke-linejoin:miter;stroke-miterlimit:4;stroke-dasharray:none;stroke-dashoffset:0;stroke-opacity:1;marker:none;paint-order:markers stroke fill;color-rendering:auto;image-rendering:auto;shape-rendering:auto;text-rendering:auto;enable-background:accumulate"
           id="rect9522"
           width="1.947432160377502"
           height="11.16792964935303"
           x="-35.6219482421875"
           y="-17.18051528930664"
           rx="0"
           ry="0"
           transform="matrix(-0.7071067811865474,-0.7071067811865474,-0.7071067811865474,0.7071067811865474,0,0)" />
      </g>
    </g>
    <path
       style="fill:#000000;stroke:none;stroke-width:1;stroke-miterlimit:4;stroke-dasharray:none"
       inkscape:connector-curvature="0"
       d="m 56.34913736442103,58.11756110191345 v -0.73945606779307 q -0.55735121527686,0.87189596053213 -1.63894367264583,0.87189596053213 -0.70082776574417,0 -1.29128895420578,-0.38628302048892 -0.58494285959749,-0.38628302048891 -0.91052426258103,-1.07607412850484 -0.32006307411938,-0.69530943688005 -0.32006307411938,-1.59479704173282 0,-0.87741428939625 0.29247142979873,-1.58927871286869 0.29247142979873,-0.71738275233656 0.87741428939627,-1.09814744396135 0.58494285959749,-0.38076469162479 1.3078439407982,-0.38076469162479 0.52975957095623,0 0.94363423576577,0.22625148342922 0.41387466480955,0.22073315456511 0.67323612142355,0.57942453073338 v -2.90264098253101 h 0.9877808666788 v 8.08987011481077 z m -3.13992912368848,-2.92471429798752 q 0,1.12573908828199 0.47457628231494,1.68309030355887 0.47457628231498,0.55735121527686 1.12022075941787,0.55735121527686 0.65116280596704,0 1.10366577282548,-0.52975957095623 0.45802129572258,-0.53527789982035 0.45802129572258,-1.62790701491759 0,-1.20299569237977 -0.4635396245867,-1.76586523652076 -0.46353962458671,-0.562869544141 -1.14229407487438,-0.562869544141 -0.66219946369528,0 -1.1091841016896,0.54079622868449 -0.44146630913019,0.54079622868448 -0.44146630913019,1.70516361901536 z m -7.57309576496483,2.92471429798752 v -5.86046525370328 h 0.89396927598865 v 0.83326765848323 q 0.6456444771029,-0.9657075512223 1.86519515607506,-0.9657075512223 0.52975957095623,0 0.97122588008643,0.19314151024446 0.4469846379943,0.18762318138033 0.66771779255941,0.49664959777147 0.22073315456511,0.30902641639113 0.30902641639113,0.73393773892894 0.0551832886413,0.27591644320637 0.0551832886413,0.96570755122229 v 3.60346874827519 h -0.99329919554292 v -3.56484044622629 q 0,-0.60701617505403 -0.11588490614669,-0.9050059337169 -0.11588490614669,-0.303508087527 -0.41387466480954,-0.48009461117908 -0.29247142979874,-0.1821048525162 -0.68979110801591,-0.1821048525162 -0.63460781937466,0 -1.09814744396138,0.4028380070813 -0.45802129572256,0.4028380070813 -0.45802129572256,1.52857709536329 v 3.20063074119389 z m -3.0701355971396,0 v -0.86085930280386 q -0.68427277915179,0.99329919554292 -1.85967682721093,0.99329919554292 -0.51872291322798,0 -0.97122588008641,-0.19865983910858 -0.44698463799432,-0.19865983910859 -0.66771779255943,-0.49664959777147 -0.21521482570096,-0.30350808752701 -0.30350808752699,-0.73945606779306 -0.0607016175054,-0.29247142979874 -0.0607016175054,-0.9270792491734 v -3.63106039259583 h 0.99329919554295 v 3.25029570097104 q 0,0.77808436984196 0.0607016175054,1.04848248418419 0.0938115906902,0.39180134935306 0.39731967821718,0.61805283278227 0.303508087527,0.22073315456511 0.75049272552131,0.22073315456511 0.44698463799432,0 0.83878598734736,-0.22625148342923 0.39180134935305,-0.23176981229334 0.55183288641274,-0.62357116164639 0.1655498659238,-0.39731967821718 0.1655498659238,-1.14781240373851 v -3.13992912368849 h 0.99329919554295 v 5.86046525370329 z m -11.12138122459874,-2.93023262685164 q 0,-1.62790701491759 0.9050059337169,-2.41150971362368 0.75601105438545,-0.65116280596703 1.84312184061854,-0.65116280596703 1.2085140212439,0 1.97556173335762,0.79463935643435 0.76704771211372,0.78912102757021 0.76704771211372,2.18525823019445 0,1.13125741714611 -0.34213638957591,1.78242022311314 -0.33661806071176,0.64564447710292 -0.9877808666788,1.00433585327119 -0.64564447710291,0.35869137616828 -1.4126921892166,0.35869137616828 -1.23058733670041,0 -1.99211671995,-0.78912102757022 -0.75601105438548,-0.78912102757021 -0.75601105438547,-2.27355149202048 z m 1.02089083986358,0 q 0,1.12573908828199 0.49113126890733,1.68860863242298 0.49113126890734,0.55735121527687 1.23610566556454,0.55735121527687 0.73945606779307,0 1.23058733670041,-0.562869544141 0.49113126890735,-0.56286954414099 0.49113126890735,-1.71620027674363 0,-1.08711078623309 -0.49664959777146,-1.64446200150995 -0.49113126890735,-0.562869544141 -1.22506900783628,-0.562869544141 -0.7449743966572,0 -1.23610566556453,0.55735121527686 -0.49113126890736,0.55735121527686 -0.49113126890736,1.68309030355887 z m -4.16828445484863,2.93023262685164 v -5.08789921272546 h -0.87741428939624 v -0.77256604097782 h 0.87741428939624 v -0.62357116164641 q 0,-0.59046118846163 0.10484824841843,-0.87741428939625 0.14347655046731,-0.38628302048891 0.5021679266356,-0.6235711616464 0.3642097050324,-0.24280647002161 1.01537251099944,-0.24280647002161 0.41939299367368,0 0.9270792491734,0.0993299195543 l -0.14899487933144,0.86637763166798 q -0.30902641639113,-0.0551832886413 -0.5849428595975,-0.0551832886413 -0.45250296685845,0 -0.64012614823879,0.19314151024445 -0.18762318138033,0.19314151024446 -0.18762318138033,0.72290108120069 v 0.5407962286845 h 1.14229407487437 v 0.77256604097782 h -1.14229407487437 v 5.08789921272546 z m -5.57740733865648,-0.88845094712451 0.14347655046731,0.87741428939627 q -0.41939299367368,0.088293261826 -0.75049272552133,0.088293261826 -0.54079622868448,0 -0.83878598734736,-0.17106819478795 -0.29798975866288,-0.17106819478797 -0.41939299367368,-0.44698463799434 -0.12140323501081,-0.28143477207049 -0.12140323501081,-1.17540404805915 v -3.37169893598184 h -0.72841941006481 v -0.77256604097782 h 0.72841941006481 v -1.45132049126552 l 0.98778086667881,-0.59597951732576 v 2.04730000859128 h 0.99881752440706 v 0.77256604097782 h -0.99881752440706 v 3.42688222462312 q 0,0.42491132253781 0.0496649597772,0.54631455754862 0.0551832886413,0.12140323501081 0.17106819478794,0.19314151024446 0.12140323501081,0.0717382752337 0.3421363895759,0.0717382752337 0.16554986592383,0 0.43594798026602,-0.0386283020489 z m -9.44932614825665,-2.04178167972713 q 0,-1.62790701491759 0.90500593371689,-2.41150971362368 0.75601105438546,-0.65116280596703 1.84312184061854,-0.65116280596703 1.2085140212439,0 1.97556173335762,0.79463935643435 0.7670477121137,0.78912102757021 0.7670477121137,2.18525823019445 0,1.13125741714611 -0.34213638957589,1.78242022311314 -0.33661806071178,0.64564447710292 -0.98778086667882,1.00433585327119 -0.64564447710289,0.35869137616828 -1.41269218921662,0.35869137616828 -1.2305873367004,0 -1.99211671994997,-0.78912102757022 -0.75601105438545,-0.78912102757021 -0.75601105438545,-2.27355149202048 z m 1.02089083986357,0 q 0,1.12573908828199 0.49113126890734,1.68860863242298 0.49113126890734,0.55735121527687 1.23610566556452,0.55735121527687 0.73945606779308,0 1.23058733670041,-0.562869544141 0.49113126890734,-0.56286954414099 0.49113126890734,-1.71620027674363 0,-1.08711078623309 -0.49664959777147,-1.64446200150995 -0.49113126890733,-0.562869544141 -1.22506900783628,-0.562869544141 -0.74497439665718,0 -1.23610566556452,0.55735121527686 -0.49113126890734,0.55735121527686 -0.49113126890734,1.68309030355887 z m -7.562057676725096,2.93023262685164 v -5.86046525370328 h 0.893969275988641 v 0.83326765848323 q 0.645644477102902,-0.9657075512223 1.865195156075055,-0.9657075512223 0.529759570956239,0 0.971225880086429,0.19314151024446 0.44698463799431,0.18762318138033 0.6677177925594,0.49664959777147 0.2207331545651,0.30902641639113 0.30902641639114,0.73393773892894 0.0551832886413,0.27591644320637 0.0551832886413,0.96570755122229 v 3.60346874827519 h -0.99329919554293 v -3.56484044622629 q 0,-0.60701617505403 -0.11588490614667,-0.9050059337169 -0.11588490614669,-0.303508087527 -0.413874664809564,-0.48009461117908 -0.292471429798754,-0.1821048525162 -0.689791108015927,-0.1821048525162 -0.634607819374651,0 -1.09814744396135,0.4028380070813 -0.45802129572257,0.4028380070813 -0.45802129572257,1.52857709536329 v 3.20063074119389 z m 39.862405184190713,-11.77611379604785 1.02640916872771,0.12692156387493 q -0.24280647002162,0.89948760485276 -0.89948760485278,1.39613720262422 -0.65668113483116,0.49664959777147 -1.67757197469473,0.49664959777147 -1.28577062534167,0 -2.04178167972712,-0.78912102757022 -0.75049272552134,-0.79463935643435 -0.75049272552134,-2.22388653224334 0,-1.47891213558615 0.76152938324958,-2.29562480747699 0.76152938324958,-0.81671267189084 1.97556173335762,-0.81671267189084 1.17540404805915,0 1.92037844471633,0.80015768529848 0.74497439665721,0.80015768529847 0.74497439665721,2.25147817656395 0,0.088293261826 -0.005518328864,0.26487978547812 h -4.3705164603889 q 0.0551832886413,0.96570755122229 0.54631455754862,1.47891213558615 0.49113126890736,0.51320458436384 1.22506900783629,0.51320458436384 0.54631455754861,0 0.93259757803753,-0.28695310093461 0.38628302048891,-0.28695310093463 0.61253450391797,-0.91604259144516 z m -3.26133235869929,-1.60583369946107 h 3.27236901642755 q -0.0662199463695,-0.73945606779308 -0.37524636276067,-1.10918410168961 -0.47457628231497,-0.57390620186926 -1.2305873367004,-0.57390620186926 -0.6842727791518,0 -1.15333073260265,0.45802129572257 -0.46353962458668,0.45802129572258 -0.51320458436383,1.2250690078363 z m -7.56349319266154,3.97871511103584 0.96570755122228,0.14347655046731 q 0.0607016175054,0.44698463799432 0.33661806071177,0.65116280596703 0.36972803389655,0.27591644320637 1.00985418213533,0.27591644320637 0.68979110801591,0 1.06503747077657,-0.27591644320637 0.37524636276068,-0.27591644320637 0.50768625549973,-0.77256604097782 0.0772566040978,-0.303508087527 0.0717382752337,-1.27473396761345 -0.65116280596703,0.76704771211372 -1.62238868605346,0.76704771211372 -1.2085140212439,0 -1.87071348493919,-0.87189596053214 -0.66219946369529,-0.87189596053213 -0.66219946369529,-2.09144663950427 0,-0.83878598734738 0.30350808752701,-1.54513208195568 0.30350808752701,-0.71186442347242 0.87741428939627,-1.09814744396136 0.57942453073336,-0.38628302048891 1.35750890057534,-0.38628302048891 1.03744582645595,0 1.71068194787949,0.83878598734735 v -0.7063460946083 h 0.91604259144514 v 5.06582589726896 q 0,1.36854555830358 -0.28143477207049,1.9369334313087 -0.27591644320637,0.57390620186928 -0.88293261826036,0.90500593371691 -0.60149784618991,0.33109973184763 -1.48443046445027,0.33109973184763 -1.04848248418422,0 -1.69412696128714,-0.47457628231496 -0.64564447710292,-0.46905795345083 -0.62357116164643,-1.41821051808072 z m 0.82223100075498,-3.52069381531328 q 0,1.15333073260263 0.45802129572256,1.68309030355886 0.45802129572259,0.52975957095623 1.1478124037385,0.52975957095623 0.6842727791518,0 1.1478124037385,-0.52424124209211 0.4635396245867,-0.52975957095623 0.4635396245867,-1.65549865923822 0,-1.07607412850484 -0.48009461117907,-1.62238868605346 -0.47457628231497,-0.54631455754861 -1.1478124037385,-0.54631455754861 -0.66219946369528,0 -1.125739088282,0.54079622868448 -0.46353962458669,0.53527789982035 -0.46353962458669,1.59479704173283 z m -3.44681890634821,2.31217979406938 q -0.55183288641274,0.46905795345084 -1.06503747077659,0.66219946369529 -0.50768625549972,0.19314151024446 -1.09262911509723,0.19314151024446 -0.96570755122229,0 -1.48443046445027,-0.46905795345083 -0.51872291322797,-0.47457628231497 -0.51872291322797,-1.2085140212439 0,-0.43042965140194 0.19314151024446,-0.78360269870609 0.19865983910858,-0.35869137616828 0.51320458436384,-0.57390620186925 0.32006307411939,-0.21521482570097 0.71738275233657,-0.32558140298352 0.29247142979875,-0.0772566040978 0.88293261826038,-0.14899487933144 1.20299569237979,-0.14347655046731 1.7713835653849,-0.3421363895759 0.005518328864,-0.2041781679727 0.005518328864,-0.25936145661399 0,-0.607016175054 -0.2814347720705,-0.85534097393974 -0.38076469162479,-0.33661806071177 -1.13125741714612,-0.33661806071177 -0.70082776574418,0 -1.03744582645595,0.24832479888574 -0.33109973184765,0.24280647002162 -0.49113126890734,0.866377631668 l -0.97122588008642,-0.13243989273905 q 0.13243989273906,-0.62357116164638 0.43594798026607,-1.00433585327117 0.30350808752701,-0.38628302048892 0.87741428939626,-0.59046118846164 0.57390620186924,-0.20969649683684 1.32991725625469,-0.20969649683684 0.75049272552133,0 1.21955067897216,0.17658652365207 0.46905795345085,0.17658652365206 0.68979110801593,0.44698463799431 0.22073315456509,0.26487978547813 0.30902641639113,0.67323612142355 0.0496649597771,0.25384312774986 0.0496649597771,0.91604259144517 v 1.32439892739059 q 0,1.38510054489597 0.0607016175054,1.75482857879252 0.0662199463695,0.3642097050324 0.25384312774984,0.70082776574417 h -1.03744582645592 q -0.15451320819557,-0.30902641639114 -0.19865983910842,-0.72290108120075 z m -0.0827749329619,-2.21836820337921 q -0.54079622868447,0.22073315456511 -1.62238868605345,0.37524636276067 -0.61253450391815,0.088293261826 -0.86637763166801,0.19865983910858 -0.25384312774986,0.11036657728255 -0.39180134935304,0.32558140298352 -0.13795822160319,0.20969649683685 -0.13795822160319,0.46905795345083 0,0.39731967821718 0.29798975866288,0.66219946369529 0.303508087527,0.26487978547811 0.88293261826038,0.26487978547811 0.57390620186925,0 1.02089083986359,-0.24832479888573 0.44698463799432,-0.25384312774986 0.65668113483116,-0.68979110801592 0.16003153705968,-0.33661806071176 0.16003153705968,-0.99329919554292 z m -13.50673225056382,2.9412692845799 v -5.8604652537033 h 0.88845094712452 v 0.82223100075498 q 0.27591644320637,-0.43042965140193 0.73393773892894,-0.68979110801591 0.45802129572258,-0.26487978547813 1.04296415532008,-0.26487978547813 0.65116280596703,0 1.06503747077659,0.27039811434225 0.41939299367368,0.27039811434225 0.59046118846164,0.75601105438546 0.69530943688004,-1.02640916872771 1.81001186743377,-1.02640916872771 0.87189596053213,0 1.34095391398297,0.48561294004322 0.46905795345082,0.48009461117908 0.46905795345082,1.48443046445027 v 4.02286174194887 h -0.9877808666788 v -3.69176201010124 q 0,-0.59597951732576 -0.0993299195543,-0.85534097393974 -0.0938115906902,-0.26487978547811 -0.34765471844002,-0.42491132253781 -0.25384312774986,-0.16003153705968 -0.59597951732575,-0.16003153705968 -0.61805283278227,0 -1.0264091687277,0.41387466480954 -0.40835633594543,0.40835633594542 -0.40835633594543,1.31336226966232 v 3.40480890916661 h -0.99329919554294 v -3.80764691624791 q 0,-0.66219946369528 -0.24280647002159,-0.99329919554294 -0.24280647002161,-0.33109973184762 -0.79463935643435,-0.33109973184762 -0.41939299367367,0 -0.77808436984196,0.22073315456508 -0.35317304730415,0.22073315456511 -0.51320458436385,0.64564447710292 -0.1600315370597,0.42491132253781 -0.1600315370597,1.22506900783629 v 3.04059920413421 z m -2.85083948401734,-6.9475760399364 v -1.14229407487437 h 0.99329919554294 v 1.14229407487437 z m 0,6.9475760399364 v -5.8604652537033 h 0.99329919554294 v 5.8604652537033 z m 31.15824257396162,-9.8888453245163 v -0.73945606779307 q -0.55735121527686,0.87189596053213 -1.63894367264583,0.87189596053213 -0.70082776574418,0 -1.29128895420582,-0.38628302048892 -0.58494285959749,-0.38628302048892 -0.91052426258102,-1.07607412850484 -0.32006307411938,-0.69530943688004 -0.32006307411938,-1.59479704173282 0,-0.87741428939626 0.29247142979876,-1.58927871286869 0.29247142979875,-0.71738275233656 0.87741428939624,-1.09814744396135 0.58494285959752,-0.38076469162479 1.3078439407982,-0.38076469162479 0.52975957095624,0 0.94363423576578,0.22625148342922 0.41387466480954,0.2207331545651 0.67323612142354,0.57942453073338 v -2.90264098253102 h 0.98778086667882 v 8.08987011481077 z m -3.13992912368849,-2.92471429798752 q 0,1.12573908828199 0.47457628231497,1.68309030355886 0.47457628231495,0.55735121527686 1.12022075941785,0.55735121527686 0.65116280596703,0 1.10366577282548,-0.52975957095623 0.45802129572256,-0.53527789982035 0.45802129572256,-1.62790701491758 0,-1.20299569237977 -0.46353962458669,-1.76586523652077 -0.4635396245867,-0.56286954414098 -1.14229407487437,-0.56286954414098 -0.66219946369529,0 -1.1091841016896,0.54079622868447 -0.44146630913017,0.54079622868448 -0.4414663091302,1.70516361901537 z m -3.30126854451373,1.03744582645595 1.02640916872771,0.12692156387493 q -0.24280647002162,0.89948760485277 -0.89948760485278,1.39613720262423 -0.65668113483116,0.49664959777148 -1.67757197469473,0.49664959777148 -1.28577062534167,0 -2.04178167972713,-0.78912102757021 -0.75049272552132,-0.79463935643436 -0.75049272552132,-2.22388653224335 0,-1.47891213558615 0.76152938324957,-2.29562480747699 0.76152938324958,-0.81671267189084 1.97556173335762,-0.81671267189084 1.17540404805912,0 1.92037844471632,0.80015768529848 0.7449743966572,0.80015768529848 0.7449743966572,2.251478176564 0,0.088293261826 -0.005518328864,0.26487978547812 h -4.3705164603889 q 0.0551832886413,0.96570755122233 0.54631455754863,1.47891213558615 0.49113126890732,0.51320458436387 1.22506900783628,0.51320458436387 0.54631455754861,0 0.93259757803753,-0.28695310093461 0.38628302048891,-0.28695310093461 0.612534503918,-0.91604259144526 z m -3.26133235869928,-1.60583369946107 h 3.27236901642755 q -0.0662199463695,-0.73945606779306 -0.37524636276066,-1.10918410168961 -0.47457628231497,-0.57390620186925 -1.23058733670041,-0.57390620186925 -0.6842727791518,0 -1.15333073260264,0.45802129572258 -0.4635396245867,0.45802129572257 -0.51320458436384,1.22506900783628 z m -6.75574328703806,3.49310217099264 v -8.08987011481077 h 0.99329919554292 v 4.61332293041051 l 2.35080809611827,-2.38391806930303 h 1.2857706253417 l -2.24044151883574,2.17422157246619 2.46669300226495,3.6862436812371 h -1.22506900783628 l -1.93693343130872,-2.99645257322118 -0.70082776574418,0.67323612142355 v 2.32321645179763 z m -6.65641344757751,0 v -5.86046525370329 h 0.89396927598863 v 0.83326765848323 q 0.6456444771029,-0.96570755122229 1.86519515607506,-0.96570755122229 0.52975957095623,0 0.97122588008642,0.19314151024446 0.44698463799432,0.18762318138034 0.66771779255942,0.49664959777146 0.22073315456508,0.30902641639114 0.30902641639113,0.73393773892895 0.0551832886413,0.27591644320637 0.0551832886413,0.96570755122229 v 3.60346874827519 h -0.99329919554294 v -3.5648404462263 q 0,-0.607016175054 -0.11588490614666,-0.90500593371689 -0.11588490614668,-0.30350808752701 -0.41387466480956,-0.48009461117908 -0.29247142979875,-0.18210485251621 -0.68979110801592,-0.18210485251621 -0.63460781937465,0 -1.09814744396135,0.4028380070813 -0.45802129572258,0.4028380070813 -0.45802129572258,1.52857709536329 v 3.20063074119389 z m -2.87083970336244,-6.9475760399364 v -1.14229407487437 h 0.99329919554294 v 1.14229407487437 z m 0,6.9475760399364 v -5.86046525370329 h 0.99329919554294 v 5.86046525370329 z m -6.57363851461558,0 v -8.08987011481077 h 1.0705557996407 v 7.13519922131673 h 3.98423343989999 v 0.95467089349404 z"
       id="path9572" />
  </g>
</svg>
