<?xml version="1.0"?>
<svg xmlns="http://www.w3.org/2000/svg" height="512px" viewBox="0 -5 512 511" width="512px" class="hovered-paths"><g><path d="m501 256.5c0 135.308594-109.691406 245-245 245s-245-109.691406-245-245 109.691406-245 245-245 245 109.691406 245 245zm0 0" fill="#ffe266" data-original="#FFE266" class="" style="fill:#FFFFFF" data-old_color="#ffe266"/><path d="m308.675781 170.769531c0 7.824219-6.34375 14.167969-14.167969 14.167969-7.828124 0-14.167968-6.34375-14.167968-14.167969 0-7.828125 6.339844-14.167969 14.167968-14.167969 7.824219 0 14.167969 6.339844 14.167969 14.167969zm33.054688-14.167969c-7.824219 0-14.167969 6.339844-14.167969 14.167969 0 7.824219 6.34375 14.167969 14.167969 14.167969 7.828125 0 14.167969-6.34375 14.167969-14.167969 0-7.828125-6.339844-14.167969-14.167969-14.167969zm47.230469 0c-7.828126 0-14.171876 6.339844-14.171876 14.167969 0 7.824219 6.34375 14.167969 14.171876 14.167969 7.824218 0 14.167968-6.34375 14.167968-14.167969 0-7.828125-6.34375-14.167969-14.167968-14.167969zm0 0" fill="#fff1c5" data-original="#FFF1C5" class="hovered-path active-path" style="fill:#F788EE" data-old_color="#fff1c5"/><path d="m493.414062 147.980469-23.882812-5.304688c-3.332031-15.226562-9.304688-29.457031-17.429688-42.191406l13.261719-19.894531c6.277344-9.414063 5.035157-21.949219-2.964843-29.949219-7.863282-7.863281-20.136719-9.210937-29.523438-3.238281l-20.640625 13.132812c-12.71875-8.148437-26.941406-14.148437-42.160156-17.511718l-4.6875-23.441407c-2.21875-11.097656-11.957031-19.082031-23.273438-19.082031-11.121093 0-20.753906 7.726562-23.167969 18.585938l-5.304687 23.882812c-15.226563 3.332031-29.457031 9.304688-42.191406 17.429688l-19.894531-13.265626c-9.414063-6.273437-21.949219-5.03125-29.949219 2.964844-7.867188 7.867188-9.210938 20.140625-3.242188 29.523438l13.136719 20.644531c-8.148438 12.71875-14.152344 26.941406-17.511719 42.15625l-23.441406 4.691406c-11.097656 2.21875-19.082031 11.957031-19.082031 23.269531 0 11.125 7.726562 20.757813 18.585937 23.167969l23.882813 5.308594c3.332031 15.222656 9.304687 29.457031 17.429687 42.191406l-13.261719 19.894531c-6.277343 9.414063-5.035156 21.949219 2.964844 29.945313 7.863282 7.867187 20.136719 9.214844 29.523438 3.242187l20.640625-13.132812c12.71875 8.152344 26.941406 14.152344 42.15625 17.511719l4.6875 23.445312c2.222656 11.09375 11.960937 19.078125 23.273437 19.078125 11.125 0 20.757813-7.726562 23.167969-18.585937l5.308594-23.882813c15.222656-3.332031 29.457031-9.304687 42.191406-17.429687l19.894531 13.261719c9.414063 6.277343 21.949219 5.035156 29.945313-2.964844 7.867187-7.863282 9.214843-20.136719 3.242187-29.523438l-13.132812-20.640625c8.148437-12.71875 14.148437-26.941406 17.511718-42.160156l23.441407-4.6875c11.097656-2.21875 19.082031-11.957031 19.082031-23.273437 0-11.121094-7.726562-20.753907-18.585938-23.167969zm-151.683593 96.328125c-40.613281 0-73.539063-32.925782-73.539063-73.539063 0-40.617187 32.925782-73.542969 73.539063-73.542969 40.617187 0 73.542969 32.925782 73.542969 73.542969 0 40.613281-32.925782 73.539063-73.542969 73.539063zm0 0" fill="#54d680" data-original="#54D680" class=""/><path d="m341.734375 66.589844c-57.539063 0-104.179687 46.640625-104.179687 104.179687 0 57.535157 46.640624 104.179688 104.179687 104.179688 57.535156 0 104.179687-46.644531 104.179687-104.179688-.003906-57.539062-46.644531-104.179687-104.179687-104.179687zm0 177.71875c-40.617187 0-73.542969-32.925782-73.542969-73.539063 0-40.617187 32.925782-73.542969 73.542969-73.542969 40.613281 0 73.539063 32.925782 73.539063 73.542969 0 40.613281-32.925782 73.539063-73.539063 73.539063zm0 0" fill="#00a972" data-original="#00A972" class="" data-old_color="#00a972" style="fill:#186048"/><path d="m445.804688 165.964844c2.679687 59.722656-44.941407 108.980468-104.074219 108.980468-10.042969 0-19.753907-1.425781-28.941407-4.082031-6.554687-1.894531-11.0625-7.90625-11.0625-14.730469 0-10.15625 9.722657-17.574218 19.476563-14.738281 6.515625 1.894531 13.402344 2.914063 20.53125 2.914063 41.535156 0 75.027344-34.433594 73.488281-76.316406-1.425781-38.832032-33.5625-70.203126-72.417968-70.757813-7.4375-.105469-14.621094.898437-21.402344 2.847656-9.84375 2.835938-19.675782-4.433593-19.675782-14.675781v-.003906c0-6.835938 4.53125-12.84375 11.097657-14.742188 10.925781-3.152344 22.585937-4.566406 34.671875-3.914062 53.09375 2.867187 95.921875 46.101562 98.308594 99.21875zm0 0" fill="#00b96f" data-original="#00B96F" class=""/><path d="m352.273438 217.5v209.546875c0 8.28125-6.714844 15-15 15h-96.320313v28.179687s-73.109375 16.664063-104.777344.003907c-8.394531-4.417969-16.894531-9.824219-24.859375-15.992188v-12.191406h-96.316406c-8.285156 0-15-6.71875-15-15v-209.546875c0-8.285156 6.714844-15 15-15h322.273438c8.285156 0 15 6.714844 15 15zm0 0" fill="#0069a3" data-original="#0069A3" class=""/><path d="m269.136719 485.226562v12.273438c0 1.269531-.175781 2.5-.472657 3.679688-4.195312.210937-8.417968.320312-12.664062.320312-43.53125 0-84.398438-11.367188-119.828125-31.273438h117.964844c8.285156 0 15 6.714844 15 15zm83.136719-58.179687v-209.546875c0-8.285156-6.714844-15-15-15h-281.410157c-8.285156 0-15 6.714844-15 15v209.546875c0 8.28125 6.714844 15 15 15h281.410157c8.285156 0 15-6.71875 15-15zm0 0" fill="#08c" data-original="#08C"/><path d="m311.625 413.863281h-270.976562c-5.523438 0-10-4.476562-10-10v-163.179687c0-5.523438 4.476562-10 10-10h270.976562c5.523438 0 10 4.476562 10 10v163.179687c0 5.523438-4.476562 10-10 10zm0 0" fill="#97f0f2" data-original="#97F0F2"/><path d="m278.410156 394.046875h-212.273437c-5.523438 0-10-4.480469-10-10v-123.546875c0-5.523438 4.476562-10 10-10h212.273437c5.523438 0 10 4.476562 10 10v123.546875c0 5.519531-4.476562 10-10 10zm0 0" fill="#ff6466" data-original="#FF6466"/><path d="m286.136719 394.046875h-190c-5.523438 0-10-4.480469-10-10v-123.546875c0-5.523438 4.476562-10 10-10h190c5.523437 0 10 4.476562 10 10v123.546875c0 5.519531-4.476563 10-10 10zm0 0" fill="#ff895a" data-original="#FF895A"/><path d="m106.136719 292.273438v-10c0-2.761719 2.238281-5 5-5h125c2.761719 0 5 2.238281 5 5v10c0 2.761718-2.238281 5-5 5h-125c-2.761719 0-5-2.238282-5-5zm130 55h-125c-2.761719 0-5 2.238281-5 5v10c0 2.761718 2.238281 5 5 5h125c2.761719 0 5-2.238282 5-5v-10c0-2.761719-2.238281-5-5-5zm-45-20v-10c0-2.761719-2.238281-5-5-5h-100c-2.761719 0-5 2.238281-5 5v10c0 2.761718 2.238281 5 5 5h100c2.761719 0 5-2.238282 5-5zm75-15h-50c-2.761719 0-5 2.238281-5 5v10c0 2.761718 2.238281 5 5 5h50c2.761719 0 5-2.238282 5-5v-10c0-2.761719-2.238281-5-5-5zm0 0" fill="#ffa47c" data-original="#FFA47C" class="" style="fill:#FFA47C"/></g> </svg>
