<svg id="Capa_1" enable-background="new 0 0 512 512" height="512" viewBox="0 0 512 512" width="512" xmlns="http://www.w3.org/2000/svg" xmlns:xlink="http://www.w3.org/1999/xlink"><linearGradient id="SVGID_1_" gradientUnits="userSpaceOnUse" x1="256" x2="256" y1="512" y2="0"><stop offset="0" stop-color="#ffc8d1"/><stop offset="1" stop-color="#fff6f7"/></linearGradient><linearGradient id="SVGID_2_" gradientUnits="userSpaceOnUse" x1="256" x2="256" y1="407" y2="105"><stop offset="0" stop-color="#ffa68d"/><stop offset="1" stop-color="#fd3a84"/></linearGradient><g><circle cx="256" cy="256" fill="url(#SVGID_1_)" r="256"/><g><g><path d="m398.118 176.059h-35.529c-4.91 0-8.883 3.973-8.883 8.882v26.647h53.294v-26.647c0-4.91-3.973-8.882-8.882-8.882zm-44.412 142.118h53.294v-88.824h-53.294zm17.765 56.453v5.723c0 4.91 3.973 8.882 8.882 8.882s8.882-3.973 8.882-8.882v-5.723c9.519-10.798 15.467-24.377 17.027-38.689h-51.818c1.56 14.313 7.508 27.891 17.027 38.689zm-204.294-216.336h106.588c4.91 0 8.882-3.973 8.882-8.882v-35.529c0-4.91-3.973-8.882-8.882-8.882h-106.588c-4.91 0-8.882 3.973-8.882 8.882v35.529c-.001 4.909 3.972 8.882 8.882 8.882zm79.941 88.824c0 3.079-1.596 5.933-4.216 7.555-2.564 1.595-5.829 1.786-8.639.39l-13.792-6.896-13.792 6.896c-2.767 1.362-6.029 1.24-8.64-.39-2.62-1.622-4.216-4.476-4.216-7.555v-35.53h-17.765v88.824h88.823v-88.824h-17.765v35.53zm-22.675-16.828 4.91 2.455v-21.156h-17.765v21.156l4.909-2.455c2.499-1.249 5.448-1.249 7.946 0zm102.616-107.525h-26.647v26.647c0 14.694-11.953 26.647-26.647 26.647h-106.588c-14.694 0-26.647-11.953-26.647-26.647v-26.647h-26.647c-4.91 0-8.882 3.973-8.882 8.882v266.471c0 4.91 3.973 8.882 8.882 8.882h213.177c4.909 0 8.882-3.973 8.882-8.882v-266.471c-.001-4.909-3.974-8.882-8.883-8.882zm-159.882 266.47c-4.905 0-8.882-3.977-8.882-8.882 0-4.906 3.977-8.882 8.882-8.882s8.882 3.976 8.882 8.882c0 4.905-3.977 8.882-8.882 8.882zm0-35.529c-4.905 0-8.882-3.977-8.882-8.882 0-4.906 3.977-8.882 8.882-8.882s8.882 3.976 8.882 8.882c0 4.905-3.977 8.882-8.882 8.882zm106.588 35.529h-71.059c-4.909 0-8.882-3.973-8.882-8.882s3.973-8.882 8.882-8.882h71.059c4.91 0 8.882 3.973 8.882 8.882s-3.973 8.882-8.882 8.882zm0-35.529h-71.059c-4.909 0-8.882-3.973-8.882-8.882 0-4.91 3.973-8.882 8.882-8.882h71.059c4.91 0 8.882 3.973 8.882 8.882s-3.973 8.882-8.882 8.882zm8.882-44.412c0 4.909-3.973 8.882-8.882 8.882h-106.588c-4.91 0-8.882-3.973-8.882-8.882v-106.588c0-4.91 3.973-8.882 8.882-8.882h106.588c4.91 0 8.882 3.973 8.882 8.882z" fill="url(#SVGID_2_)"/></g></g></g></svg>