<svg id="Capa_1" enable-background="new 0 0 512 512" height="512" viewBox="0 0 512 512" width="512" xmlns="http://www.w3.org/2000/svg"><g><path d="m430.372 184.005-174.372-151.553-176.096 152.907-5.565 14.757v304.272h363.322v-304.272z" fill="#90d8f9"/><path d="m115.61 241.716c0-19.907 8.815-38.174 23.045-50.53l150.061-130.3-32.716-28.434-176.096 152.907-5.565 14.758v304.272h41.271z" fill="#75cef9"/><path d="m303.267 348.357c-1.532-.593-2.989-1.157-4.36-1.688-8.988 13.793-24.524 22.947-42.179 22.947-19.601 0-35.009-9.505-43.763-23.093l-59.777 23.347c-11.803 4.857-27.606 20.14-27.606 42.818v32.335h46.364v59.367h102.618 33.571l14.81-10.912v-132.693z" fill="#dd636e"/><path d="m149.272 400.016c0-14.25 6.444-25.687 13.217-33.78l-9.301 3.633c-11.803 4.857-27.606 20.14-27.606 42.818v32.335h23.69c0-18.534 0-35.415 0-45.006z" fill="#da4a54"/><path d="m434.347 24.756h-43.386l-4.336 3.394v80.187l2.053 6.488 45.415 40.595 3.568-2.479v-124.791z" fill="#ffe07d"/><path d="m412.144 24.756h-21.183l-4.336 3.394v80.187l2.053 6.488 23.466 20.975z" fill="#ffc250"/><path d="m447.289 0h-70.292c-3.383 0-6.125 2.742-6.125 6.125v15.899c0 3.383 2.742 6.125 6.125 6.125h70.292c3.383 0 6.125-2.742 6.125-6.125v-15.898c.001-3.384-2.742-6.126-6.125-6.126z" fill="#fff0af"/><path d="m407.407 22.025v-15.899c0-3.383 2.742-6.125 6.125-6.125h-36.535c-3.383 0-6.125 2.742-6.125 6.125v15.899c0 3.383 2.742 6.125 6.125 6.125h36.535c-3.382 0-6.125-2.742-6.125-6.125z" fill="#ffe07d"/><path d="m479.989 189.934-212.301-185.546c-6.694-5.85-16.682-5.85-23.376 0l-212.301 185.546c-7.386 6.455-8.14 17.675-1.685 25.06 6.456 7.386 17.676 8.139 25.061 1.685l197.804-172.876c1.609-1.406 4.01-1.406 5.619 0l197.803 172.877c7.386 6.454 18.604 5.701 25.061-1.685 6.454-7.386 5.7-18.606-1.685-25.061z" fill="#dd636e"/><g><path d="m47.235 200.083 212.3-185.547c4.277-3.738 9.897-5.075 15.146-4.036l-6.994-6.112c-6.694-5.85-16.682-5.85-23.376 0l-212.299 185.546c-7.386 6.455-8.14 17.675-1.685 25.06 3.314 3.792 7.885 5.822 12.547 6.04-3.308-6.997-1.756-15.605 4.361-20.951z" fill="#da4a54"/></g><path d="m125.582 444.007h47.379v60.381h-47.379z" fill="#ffcebe"/><path d="m149.272 444.007h-23.69v60.382h23.69c0-17.141 0-39.845 0-60.382z" fill="#ffb1a0"/><path d="m284.225 337.498-.006-18.208c-8.03 4.819-17.418 7.598-27.445 7.598-11.064 0-20.867-2.858-29.029-7.691v18.271c0 2.103-1.011 3.342-2.175 4.131l-13.124 5.126c8.657 14.022 24.291 23.905 44.282 23.905 18.002 0 33.818-9.505 42.718-23.753-6.512-2.522-11.125-4.309-11.96-4.632-1.955-.756-3.255-2.638-3.261-4.747z" fill="#ffcebe"/><path d="m256 326.875c-10.746-.131-20.284-2.959-28.255-7.678v18.271c0 2.103-1.011 3.342-2.175 4.131l-13.124 5.126c8.551 13.85 23.913 23.656 43.554 23.894z" fill="#ffb1a0"/><path d="m453.74 340.301h-135.168c-10.262 0-18.581 8.319-18.581 18.581v97.491c0 10.262 8.319 18.58 18.58 18.58l2.93 3.303h129.254l2.984-3.303c10.262 0 18.58-8.318 18.58-18.58v-97.491c.001-10.262-8.317-18.581-18.579-18.581z" fill="#d3effb"/><path d="m351.497 456.373v-97.491c0-10.262 8.319-18.581 18.581-18.581h-51.506c-10.262 0-18.581 8.319-18.581 18.581v97.491c0 10.262 8.319 18.58 18.58 18.58l2.93 3.303h51.506l-2.93-3.303c-10.261 0-18.58-8.318-18.58-18.58z" fill="#b1e4f9"/><g><path d="m391.594 415.239h-10.875c-4.204 0-7.612-3.408-7.612-7.612s3.408-7.612 7.612-7.612h10.875c4.204 0 7.612 3.408 7.612 7.612s-3.409 7.612-7.612 7.612z" fill="#f4fbff"/></g><path d="m180.573 504.388v-91.995c0-4.204-3.408-7.612-7.612-7.612s-7.612 3.408-7.612 7.612v91.995z" fill="#da4a54"/><g><path d="m459.481 512h-406.962c-4.204 0-7.612-3.408-7.612-7.612s3.408-7.612 7.612-7.612h406.962c4.204 0 7.612 3.408 7.612 7.612s-3.408 7.612-7.612 7.612z" fill="#b3e59f"/></g><path d="m478.511 474.953h-184.71c-4.17 0-7.551 4.255-7.551 9.503 0 15.212 9.798 27.544 21.885 27.544h156.042c12.087 0 21.884-12.332 21.884-27.544 0-5.248-3.38-9.503-7.55-9.503z" fill="#e4f6ff"/><path d="m337.756 484.456c0-5.249 3.381-9.503 7.551-9.503h-51.506c-4.17 0-7.551 4.255-7.551 9.503 0 15.212 9.798 27.544 21.885 27.544h51.506c-12.087 0-21.885-12.332-21.885-27.544z" fill="#d3effb"/><path d="m292.502 222.091c0-.984-1.317-1.323-1.781-.455-5.985 11.194-17.78 18.813-31.361 18.813h-57.632v34.972c0 27.96 21.908 53.497 55.046 53.497 29.499 0 53.497-23.999 53.497-53.497v-35.002c-9.824-.317-17.769-8.43-17.769-18.328z" fill="#ffdecf"/><path d="m234.444 275.421v-33.508h-.221v-1.465h-32.495v34.972c0 27.96 21.908 53.497 55.046 53.497 5.515 0 10.837-.84 15.847-2.397-23.496-6.964-38.177-28.215-38.177-51.099z" fill="#ffcebe"/><path d="m303.797 176.216c-4.81.37-9.223-2.655-10.149-7.389-1.559-7.973-5.507-15.885-20.926-15.885h-53.498c-19.634 0-35.551 15.917-35.551 35.551v39.017c0 8.267 6.702 14.969 14.969 14.969h60.719c13.581 0 25.376-7.619 31.361-18.813.464-.868 1.781-.529 1.781.455 0 10.097 8.261 18.358 18.358 18.358 5.293 0 9.623-4.33 9.623-9.623v-40.716c0-9.592-8.369-16.564-16.687-15.924z" fill="#b06c6c"/><g><path d="m213.78 227.51v-39.017c0-19.635 15.917-35.551 35.551-35.551h-30.108c-19.634 0-35.551 15.917-35.551 35.551v39.017c0 8.267 6.702 14.969 14.969 14.969h30.108c-8.267 0-14.969-6.702-14.969-14.969z" fill="#9d5e5e"/></g></g></svg>